<svg width="127" height="31" viewBox="0 0 127 31" fill="none" xmlns="http://www.w3.org/2000/svg">
<path d="M6.94585 2.4609C9.77794 2.4609 11.9795 3.05349 13.5506 4.23869C15.1217 5.42388 15.9072 7.18088 15.9072 9.50968C15.9072 11.9424 15.132 13.7826 13.5816 15.0302C12.0519 16.257 9.995 16.8703 7.41098 16.8703H5.08536V24.0751H0V2.4609H6.94585ZM6.97686 13.19C8.17585 13.19 9.08542 12.9093 9.70559 12.3479C10.3464 11.7657 10.6668 10.8196 10.6668 9.50968C10.6668 7.24325 9.40584 6.11004 6.88383 6.11004H5.08536V13.19H6.97686Z" fill="#240F51"/>
<path d="M27.5378 6.98334C28.9641 6.98334 30.0804 7.41999 30.8867 8.29329C31.6929 9.16659 32.096 10.3934 32.096 11.9736V24.0751H27.1967V12.8157C27.1967 11.984 27.0623 11.4122 26.7936 11.1003C26.5248 10.7676 26.1424 10.6013 25.6463 10.6013C24.654 10.6013 23.7031 11.3083 22.7935 12.7222V24.0751H17.8942V0.932622L22.7935 0.433594V9.29135C23.4757 8.52202 24.1992 7.95021 24.9641 7.57594C25.7289 7.18088 26.5868 6.98334 27.5378 6.98334Z" fill="#240F51"/>
<path d="M44.6943 24.1063C44.0328 26.2479 42.9475 27.8906 41.4384 29.0342C39.95 30.1986 37.9448 30.8535 35.4228 30.9991L34.8957 27.5371C36.4668 27.3292 37.6244 26.9757 38.3686 26.4767C39.1335 25.9776 39.7433 25.1771 40.1981 24.0751H38.5237L33.5003 7.51356H38.7097L41.6555 20.925L44.8803 7.51356H49.9347L44.6943 24.1063Z" fill="#240F51"/>
<path d="M77.0497 6.98334C79.5717 6.98334 81.5459 7.76308 82.9723 9.32254C84.3987 10.8612 85.1119 13.0237 85.1119 15.8099C85.1119 17.5773 84.7811 19.1264 84.1196 20.4571C83.4788 21.7671 82.5485 22.7859 81.3289 23.5137C80.1299 24.2414 78.7035 24.6053 77.0497 24.6053C74.5484 24.6053 72.5742 23.836 71.1271 22.2973C69.7008 20.7378 68.9876 18.565 68.9876 15.7787C68.9876 14.0113 69.308 12.4727 69.9488 11.1627C70.6103 9.83197 71.5406 8.80272 72.7396 8.07497C73.9592 7.34722 75.3959 6.98334 77.0497 6.98334ZM77.0497 10.6013C76.0575 10.6013 75.3133 11.0276 74.8171 11.8801C74.321 12.7118 74.0729 14.0113 74.0729 15.7787C74.0729 17.5877 74.3107 18.908 74.7861 19.7398C75.2823 20.5715 76.0368 20.9873 77.0497 20.9873C78.042 20.9873 78.7862 20.5715 79.2823 19.7398C79.7785 18.8873 80.0265 17.5773 80.0265 15.8099C80.0265 14.0009 79.7785 12.6806 79.2823 11.8489C78.8069 11.0172 78.0627 10.6013 77.0497 10.6013Z" fill="#240F51"/>
<path d="M52.25 0.713731L57.4183 0V24.6915H52.25V0.713731Z" fill="#240F51"/>
<path d="M60.8633 0.713731L66.0315 0V24.6915H60.8633V0.713731Z" fill="#240F51"/>
<path d="M89.0863 3.39659C88.6146 1.6034 126.997 3.36671 126.997 3.36671L109.058 27.0227C109.058 27.0227 101.21 18.219 98.6254 15.162C96.0413 12.1051 89.558 5.18978 89.0863 3.39659Z" fill="#473AE9"/>
<path d="M89.7737 8.78041C89.1299 7.17233 126.995 3.36719 126.995 3.36719L109.056 27.0232C109.056 27.0232 100.617 19.4167 99.0543 17.7616C97.4912 16.1065 90.4176 10.3885 89.7737 8.78041Z" fill="#8E00C5"/>
<path d="M91.2781 14.7203C90.2734 13.5235 126.994 3.36719 126.994 3.36719L109.055 27.0232C109.055 27.0232 101.712 22.7092 99.9147 21.2271C98.1177 19.745 92.2827 15.9171 91.2781 14.7203Z" fill="#FF6E63"/>
<path d="M94.2107 21.2081C93.373 19.8808 126.999 3.36719 126.999 3.36719L109.06 27.0232C109.06 27.0232 104.575 25.8289 101.864 24.7012C98.7576 23.409 95.0484 22.5353 94.2107 21.2081Z" fill="#FFA427"/>
</svg>
